<?xml version="1.0" encoding="UTF-8" standalone="no"?>
<svg
   version="1.1"
   width="287px"
   height="266px"
   style="shape-rendering:geometricPrecision; text-rendering:geometricPrecision; image-rendering:optimizeQuality; fill-rule:evenodd; clip-rule:evenodd"
   id="svg10"
   sodipodi:docname="1e4667e1-bfe8-49b2-889c-6e0f8c6d0fe6-removebg-preview.svg"
   inkscape:version="1.4 (e7c3feb1, 2024-10-09)"
   xmlns:inkscape="http://www.inkscape.org/namespaces/inkscape"
   xmlns:sodipodi="http://sodipodi.sourceforge.net/DTD/sodipodi-0.dtd"
   xmlns="http://www.w3.org/2000/svg"
   xmlns:svg="http://www.w3.org/2000/svg">
  <defs
     id="defs10" />
  <sodipodi:namedview
     id="namedview10"
     pagecolor="#505050"
     bordercolor="#ffffff"
     borderopacity="1"
     inkscape:showpageshadow="0"
     inkscape:pageopacity="0"
     inkscape:pagecheckerboard="1"
     inkscape:deskcolor="#505050"
     inkscape:zoom="2.6584773"
     inkscape:cx="111.71809"
     inkscape:cy="144.63166"
     inkscape:window-width="1712"
     inkscape:window-height="1070"
     inkscape:window-x="0"
     inkscape:window-y="42"
     inkscape:window-maximized="0"
     inkscape:current-layer="svg10" />
  <g
     id="g1">
    <path
       style="opacity:1;fill:#020202;fill-opacity:0"
       fill="#020202"
       d="m -0.5,-0.5 h 287 v 266 h -287 z"
       id="path1"
       sodipodi:nodetypes="ccccc" />
  </g>
  <g
     id="g2">
    <path
       style="opacity:1"
       fill="#f7f7f7"
       d="m 263,186.5 c -20.715,39.472 -53.215,62.972 -97.5,70.5 -84.002732,10.29729 -123.599288,-46.77234 -129,-58 4.545313,-2.99251 7.43043,-4.91626 12,-8 34.9472,45.982 80.281,60.982 136,45 40.578,-15.915 65.245,-45.248 74,-88 4.206,-43.762 -11.127,-78.7616 -46,-105 C 171.432,17.7554 129.432,16.0888 86.5,38 40.637861,67.602934 26.785154,107.00226 32,158.5 c -3.6818,3.849 -7.5151,7.516 -11.5,11 C 7.07151,116.886 20.4048,72.3865 60.5,36 169.50111,-47.935718 319.38573,59.222918 263,186.5 Z"
       id="path2"
       sodipodi:nodetypes="cccccccccccc" />
  </g>
  <g
     id="g3">
    <path
       style="opacity:1"
       fill="#f7f7f7"
       d="m 154.5,71.5 c -3.333,-0.6667 -6.667,-1.3333 -10,-2 18.57341,-17.941566 29.37226,-29.653431 58,-21.5 5.849,2.4135 10.182,6.4135 13,12 -6.43569,7.548248 -9.88342,13.457171 -4,23 -4.637,16.107 -11.804,30.94 -21.5,44.5 -11.766,13.052 -26.1,22.052 -43,27 -2.942,0.063 -3.942,-1.27 -3,-4 8.986,-4.309 17.486,-9.476 25.5,-15.5 14.51,-12.209 19.01,-27.376 13.5,-45.5 -6.332,-10.8524 -15.832,-16.8524 -28.5,-18 z"
       id="path3"
       sodipodi:nodetypes="ccccccccccc" />
  </g>
  <g
     id="g4">
    <path
       style="opacity:1;fill:#bf0000;fill-opacity:1"
       fill="#0b0b0b"
       d="M 187.5,54.5 C 195.955,53.4609 200.122,57.1276 200,65.5C 197.259,70.4186 193.092,72.2519 187.5,71C 180.848,65.3266 180.848,59.8266 187.5,54.5 Z"
       id="path4" />
  </g>
  <g
     id="g5">
    <path
       style="opacity:1;stroke-width:1.30267"
       fill="#eaeaea"
       d="m 216.60429,66.037754 c 4.99799,-0.0606 8.13549,1.892846 9.41106,5.860203 0.96572,4.688163 0.96572,9.376326 0,14.06449 -3.31269,-4.636359 -7.65626,-8.543123 -13.0307,-11.720408 -0.96572,-1.562682 -0.96572,-3.12548 0,-4.688163 1.51301,-1.02366 2.71907,-2.195701 3.61964,-3.516122 z"
       id="path5" />
  </g>
  <g
     id="g6">
    <path
       style="opacity:1"
       fill="#5c5c5c"
       d="M 144.5,69.5 C 147.833,70.1667 151.167,70.8333 154.5,71.5C 150.774,71.8226 147.107,71.4892 143.5,70.5C 143.624,69.8933 143.957,69.56 144.5,69.5 Z"
       id="path6" />
  </g>
  <g
     id="g7">
    <path
       style="opacity:1"
       fill="#fafafa"
       d="m 141.5,80.5 c 31.93156,-3.786286 46.23495,27.49304 21,46.5 -29.37288,21.6019 -68.059759,31.40074 -102,45 -18.5572,8.604 -36.5572,17.937 -54,28 33.43704,-36.22515 71.225802,-68.12165 107,-102 8.48649,-7.686334 17.09489,-13.990296 28,-17.5 z"
       id="path7"
       sodipodi:nodetypes="cccccc" />
  </g>
  <g
     id="g8">
    <path
       style="opacity:1"
       fill="#f5f5f5"
       d="m 130.5,156.5 c 1.149,0.291 1.816,1.124 2,2.5 -7.309,22.759 -14.309,45.592 -21,68.5 -11.31868,-1.05099 -12.984071,-12.06327 -11.5,-18 6.326,-12.965 12.66,-25.965 19,-39 0.988,-2.924 1.654,-5.924 2,-9 3.209,-1.777 6.376,-3.443 9.5,-5 z"
       id="path8"
       sodipodi:nodetypes="ccccccc" />
  </g>
  <g
     id="g9">
    <path
       style="opacity:1"
       fill="#f4f4f3"
       d="m 110.5,165.5 c -1.17689,8.19644 -9.68599,23.33983 -24,46 -9.492583,5.94957 -13.248041,-4.75614 -11.5,-10 8.5762,-10.821 16.9095,-21.821 25,-33 3.46492,-1.63392 6.69408,-3 10.5,-3 z"
       id="path9"
       sodipodi:nodetypes="ccccc" />
  </g>
  <g
     id="g10">
    <path
       style="opacity:1"
       fill="#f1f1f0"
       d="m 84.5,172.5 c 0.9646,1.221 0.798,2.554 -0.5,4 -4.7904,6.459 -9.9571,12.626 -15.5,18.5 -6.786468,6.87326 -14.584218,-3.4002 -10,-10 8.8797,-3.941 17.5464,-8.108 26,-12.5 z"
       id="path10"
       sodipodi:nodetypes="ccccc" />
  </g>
</svg>
